<svg width="16" height="16" viewBox="0 0 16 16" fill="none" xmlns="http://www.w3.org/2000/svg">
<path fill-rule="evenodd" clip-rule="evenodd" d="M8.00016 13.3333C10.9457 13.3333 13.3335 10.9454 13.3335 7.99992C13.3335 5.0544 10.9457 2.66659 8.00016 2.66659C5.05464 2.66659 2.66683 5.0544 2.66683 7.99992C2.66683 10.9454 5.05464 13.3333 8.00016 13.3333ZM8.00016 14.6666C11.6821 14.6666 14.6668 11.6818 14.6668 7.99992C14.6668 4.31802 11.6821 1.33325 8.00016 1.33325C4.31826 1.33325 1.3335 4.31802 1.3335 7.99992C1.3335 11.6818 4.31826 14.6666 8.00016 14.6666Z" fill="#777E91"/>
<path fill-rule="evenodd" clip-rule="evenodd" d="M9.16429 12.1177C9.65676 11.1327 9.99984 9.67876 9.99984 7.99992C9.99984 6.32108 9.65676 4.8671 9.16429 3.88216C8.63195 2.81747 8.14321 2.66659 7.99984 2.66659C7.85647 2.66659 7.36773 2.81747 6.83538 3.88216C6.34292 4.8671 5.99984 6.32108 5.99984 7.99992C5.99984 9.67876 6.34292 11.1327 6.83538 12.1177C7.36773 13.1824 7.85647 13.3333 7.99984 13.3333C8.14321 13.3333 8.63195 13.1824 9.16429 12.1177ZM7.99984 14.6666C9.84079 14.6666 11.3332 11.6818 11.3332 7.99992C11.3332 4.31802 9.84079 1.33325 7.99984 1.33325C6.15889 1.33325 4.6665 4.31802 4.6665 7.99992C4.6665 11.6818 6.15889 14.6666 7.99984 14.6666Z" fill="#777E91"/>
<path fill-rule="evenodd" clip-rule="evenodd" d="M14.6339 8.66659C14.6557 8.44731 14.6668 8.22492 14.6668 7.99992C14.6668 7.77492 14.6557 7.55252 14.6339 7.33325H1.36641C1.34464 7.55252 1.3335 7.77492 1.3335 7.99992C1.3335 8.22492 1.34464 8.44731 1.36641 8.66659H14.6339Z" fill="#777E91"/>
</svg>
