<svg width="13" height="13" viewBox="0 0 13 13" fill="none" xmlns="http://www.w3.org/2000/svg">
<path fill-rule="evenodd" clip-rule="evenodd" d="M6.50016 2.16659C5.4427 2.16659 4.46792 2.2538 3.6855 2.35713C2.98135 2.45013 2.45037 2.9811 2.35737 3.68526C2.25404 4.46767 2.16683 5.44246 2.16683 6.49992C2.16683 7.55738 2.25404 8.53216 2.35737 9.31458C2.45037 10.0187 2.98135 10.5497 3.6855 10.6427C4.46792 10.746 5.4427 10.8333 6.50016 10.8333C7.55762 10.8333 8.53241 10.746 9.31482 10.6427C10.019 10.5497 10.55 10.0187 10.643 9.31458C10.7463 8.53216 10.8335 7.55738 10.8335 6.49992C10.8335 5.44246 10.7463 4.46767 10.643 3.68526C10.55 2.9811 10.019 2.45013 9.31482 2.35713C8.53241 2.2538 7.55762 2.16659 6.50016 2.16659ZM3.54366 1.28312C2.35373 1.44028 1.44052 2.35348 1.28337 3.54341C1.17533 4.36146 1.0835 5.38478 1.0835 6.49992C1.0835 7.61506 1.17533 8.63837 1.28337 9.45642C1.44052 10.6464 2.35373 11.5596 3.54366 11.7167C4.36171 11.8248 5.38502 11.9166 6.50016 11.9166C7.61531 11.9166 8.63862 11.8248 9.45667 11.7167C10.6466 11.5596 11.5598 10.6464 11.717 9.45642C11.825 8.63837 11.9168 7.61506 11.9168 6.49992C11.9168 5.38478 11.825 4.36146 11.717 3.54342C11.5598 2.35348 10.6466 1.44028 9.45667 1.28312C8.63862 1.17508 7.61531 1.08325 6.50016 1.08325C5.38502 1.08325 4.36171 1.17508 3.54366 1.28312Z" fill="white"/>
<path d="M4.87509 5.95841C5.4734 5.95841 5.95842 5.47339 5.95842 4.87508C5.95842 4.27677 5.4734 3.79175 4.87509 3.79175C4.27678 3.79175 3.79175 4.27677 3.79175 4.87508C3.79175 5.47339 4.27678 5.95841 4.87509 5.95841Z" fill="white"/>
<path d="M9.8158 6.8832L10.7877 7.85512C10.7542 8.36223 10.7052 8.83278 10.6512 9.25069L9.04977 7.64923C8.83823 7.4377 8.49527 7.4377 8.28374 7.64923L7.10747 8.8255C6.47286 9.4601 5.44397 9.4601 4.80937 8.8255L4.71643 8.73256C4.5049 8.52103 4.16194 8.52103 3.9504 8.73256L2.64549 10.0375C2.49433 9.83251 2.39318 9.58653 2.35729 9.31474C2.33771 9.16652 2.31872 9.0114 2.30078 8.85012L3.18437 7.96653C3.81897 7.33193 4.84786 7.33193 5.48247 7.96653L5.5754 8.05947C5.78694 8.271 6.1299 8.271 6.34143 8.05947L7.5177 6.8832C8.15231 6.2486 9.1812 6.2486 9.8158 6.8832Z" fill="white"/>
</svg>
