<svg width="32" height="32" viewBox="0 0 32 32" fill="none" xmlns="http://www.w3.org/2000/svg">
<path fill-rule="evenodd" clip-rule="evenodd" d="M15.9993 26.6665C21.8904 26.6665 26.666 21.8909 26.666 15.9998C26.666 10.1088 21.8904 5.33317 15.9993 5.33317C10.1083 5.33317 5.33268 10.1088 5.33268 15.9998C5.33268 21.8909 10.1083 26.6665 15.9993 26.6665ZM15.9993 29.3332C23.3631 29.3332 29.3327 23.3636 29.3327 15.9998C29.3327 8.63604 23.3631 2.6665 15.9993 2.6665C8.63555 2.6665 2.66602 8.63604 2.66602 15.9998C2.66602 23.3636 8.63555 29.3332 15.9993 29.3332Z" fill="#EF466F"/>
<path fill-rule="evenodd" clip-rule="evenodd" d="M15.9993 9.3335C15.263 9.3335 14.666 9.93045 14.666 10.6668C14.666 11.4032 15.263 12.0002 15.9993 12.0002C16.7357 12.0002 17.3327 11.4032 17.3327 10.6668C17.3327 9.93045 16.7357 9.3335 15.9993 9.3335ZM15.9993 14.6668C15.263 14.6668 14.666 15.2638 14.666 16.0002V21.3335C14.666 22.0699 15.263 22.6668 15.9993 22.6668C16.7357 22.6668 17.3327 22.0699 17.3327 21.3335V16.0002C17.3327 15.2638 16.7357 14.6668 15.9993 14.6668Z" fill="#EF466F"/>
</svg>
