<svg width="13" height="13" viewBox="0 0 13 13" fill="none" xmlns="http://www.w3.org/2000/svg">
<path fill-rule="evenodd" clip-rule="evenodd" d="M1.0955 9.96549L1.48802 8.19916C1.57741 7.79691 1.77965 7.42849 2.07102 7.13711L7.40532 1.80282C8.25145 0.95668 9.62331 0.956678 10.4695 1.80281L11.197 2.53035C12.0431 3.37649 12.0431 4.74834 11.197 5.59448L5.86269 10.9288C5.57132 11.2202 5.20289 11.4224 4.80064 11.5118L3.03432 11.9043C1.87326 12.1623 0.837486 11.1265 1.0955 9.96549ZM2.54555 8.43417L2.15304 10.2005C2.06703 10.5875 2.41229 10.9328 2.79931 10.8468L4.56563 10.4542C4.75906 10.4113 4.93685 10.3161 5.07977 10.1793L2.82053 7.92004C2.68371 8.06295 2.58854 8.24074 2.54555 8.43417ZM3.58638 7.15382L5.84598 9.41342L8.87162 6.38779L6.61201 4.12819L3.58638 7.15382ZM10.431 4.82845L9.63765 5.62176L7.37804 3.36215L8.17135 2.56885C8.59442 2.14578 9.28035 2.14578 9.70342 2.56885L10.431 3.29638C10.854 3.71945 10.854 4.40538 10.431 4.82845Z" fill="white"/>
</svg>
